<svg xmlns="http://www.w3.org/2000/svg" style="display: none;"><symbol id="gmail" viewBox="0 0 512 512"><title>gmail</title><rect x="64" y="64" style="fill:#ECEFF1;" width="384" height="384"/><polygon style="fill:#CFD8DC;" points="256,296.384 448,448 448,148.672 "/><path style="fill:#F44336;" d="M464,64h-16L256,215.616L64,64H48C21.504,64,0,85.504,0,112v288c0,26.496,21.504,48,48,48h16V148.672 l192,147.68L448,148.64V448h16c26.496,0,48-21.504,48-48V112C512,85.504,490.496,64,464,64z"/></symbol><symbol id="telephone" viewBox="0 0 512 512"><title>telephone</title><circle style="fill:#2196F3;" cx="256" cy="256" r="256"/><path style="fill:#FAFAFA;" d="M384,308.928c-27.616,0-53.952-6.016-78.24-17.888c-3.808-1.824-8.224-2.112-12.256-0.736 c-4.032,1.408-7.328,4.352-9.184,8.16l-11.52,23.84c-34.56-19.84-63.232-48.544-83.104-83.104l23.872-11.52 c3.84-1.856,6.752-5.152,8.16-9.184c1.376-4.032,1.12-8.448-0.736-12.256c-11.904-24.256-17.92-50.592-17.92-78.24 c0-8.832-7.168-16-16-16H128c-8.832,0-16,7.168-16,16c0,149.984,122.016,272,272,272c8.832,0,16-7.168,16-16v-59.072 C400,316.096,392.832,308.928,384,308.928z"/></symbol><symbol id="instagram" viewBox="0 0 24 24"><title>instagram</title><linearGradient id="SVGID_1_" gradientTransform="matrix(0 -1.982 -1.844 0 -132.522 -51.077)" gradientUnits="userSpaceOnUse" x1="-37.106" x2="-26.555" y1="-72.705" y2="-84.047"><stop offset="0" stop-color="#fd5"/><stop offset=".5" stop-color="#ff543e"/><stop offset="1" stop-color="#c837ab"/></linearGradient><path d="m1.5 1.633c-1.886 1.959-1.5 4.04-1.5 10.362 0 5.25-.916 10.513 3.878 11.752 1.497.385 14.761.385 16.256-.002 1.996-.515 3.62-2.134 3.842-4.957.031-.394.031-13.185-.001-13.587-.236-3.007-2.087-4.74-4.526-5.091-.559-.081-.671-.105-3.539-.11-10.173.005-12.403-.448-14.41 1.633z" fill="url(#SVGID_1_)"/><path d="m11.998 3.139c-3.631 0-7.079-.323-8.396 3.057-.544 1.396-.465 3.209-.465 5.805 0 2.278-.073 4.419.465 5.804 1.314 3.382 4.79 3.058 8.394 3.058 3.477 0 7.062.362 8.395-3.058.545-1.41.465-3.196.465-5.804 0-3.462.191-5.697-1.488-7.375-1.7-1.7-3.999-1.487-7.374-1.487zm-.794 1.597c7.574-.012 8.538-.854 8.006 10.843-.189 4.137-3.339 3.683-7.211 3.683-7.06 0-7.263-.202-7.263-7.265 0-7.145.56-7.257 6.468-7.263zm5.524 1.471c-.587 0-1.063.476-1.063 1.063s.476 1.063 1.063 1.063 1.063-.476 1.063-1.063-.476-1.063-1.063-1.063zm-4.73 1.243c-2.513 0-4.55 2.038-4.55 4.551s2.037 4.55 4.55 4.55 4.549-2.037 4.549-4.55-2.036-4.551-4.549-4.551zm0 1.597c3.905 0 3.91 5.908 0 5.908-3.904 0-3.91-5.908 0-5.908z" fill="#fff"/></symbol><symbol id="twitter" viewBox="0 0 112.197 112.197"><title>twitter</title><circle style="fill:#55ACEE;" cx="56.099" cy="56.098" r="56.098"/><g> <path style="fill:#F1F2F2;" d="M90.461,40.316c-2.404,1.066-4.99,1.787-7.702,2.109c2.769-1.659,4.894-4.284,5.897-7.417 c-2.591,1.537-5.462,2.652-8.515,3.253c-2.446-2.605-5.931-4.233-9.79-4.233c-7.404,0-13.409,6.005-13.409,13.409 c0,1.051,0.119,2.074,0.349,3.056c-11.144-0.559-21.025-5.897-27.639-14.012c-1.154,1.98-1.816,4.285-1.816,6.742 c0,4.651,2.369,8.757,5.965,11.161c-2.197-0.069-4.266-0.672-6.073-1.679c-0.001,0.057-0.001,0.114-0.001,0.17 c0,6.497,4.624,11.916,10.757,13.147c-1.124,0.308-2.311,0.471-3.532,0.471c-0.866,0-1.705-0.083-2.523-0.239 c1.706,5.326,6.657,9.203,12.526,9.312c-4.59,3.597-10.371,5.74-16.655,5.74c-1.08,0-2.15-0.063-3.197-0.188 c5.931,3.806,12.981,6.025,20.553,6.025c24.664,0,38.152-20.432,38.152-38.153c0-0.581-0.013-1.16-0.039-1.734 C86.391,45.366,88.664,43.005,90.461,40.316L90.461,40.316z"/> </g></symbol><symbol id="github" viewBox="0 0 496 496"><title>github</title><path id="SVGCleanerId_0" style="fill:#3E77BF;" d="M247.992,5.163C111.048,5.163,0,116.627,0,254.163 c0,109.992,71.048,203.32,169.632,236.24c12.392,2.296,16.912-5.392,16.912-12c0-5.904-0.216-21.56-0.336-42.344 c-69,15.064-83.552-33.376-83.552-33.376c-11.264-28.768-27.52-36.408-27.52-36.408c-22.528-15.456,1.696-15.16,1.696-15.16 c24.88,1.752,37.976,25.672,37.976,25.672c22.144,38.048,58.064,27.048,72.192,20.672c2.232-16.08,8.656-27.064,15.736-33.28 c-55.056-6.296-112.944-27.64-112.944-123.04c0-27.176,9.656-49.408,25.52-66.832c-2.568-6.296-11.072-31.6,2.416-65.872 c0,0,20.832-6.688,68.2,25.52c19.784-5.52,41-8.28,62.096-8.392c21.048,0.112,42.28,2.864,62.096,8.392 c47.328-32.208,68.128-25.52,68.128-25.52c13.52,34.272,5.016,59.576,2.456,65.872c15.904,17.424,25.504,39.648,25.504,66.832 c0,95.64-57.984,116.68-113.232,122.856c8.904,7.688,16.832,22.872,16.832,46.112c0,33.296-0.296,60.128-0.296,68.296 c0,6.672,4.472,14.424,17.048,11.968C425.016,457.387,496,364.123,496,254.163C496,116.627,384.952,5.163,247.992,5.163z"/><g> <path id="SVGCleanerId_0_1_" style="fill:#3E77BF;" d="M247.992,5.163C111.048,5.163,0,116.627,0,254.163 c0,109.992,71.048,203.32,169.632,236.24c12.392,2.296,16.912-5.392,16.912-12c0-5.904-0.216-21.56-0.336-42.344 c-69,15.064-83.552-33.376-83.552-33.376c-11.264-28.768-27.52-36.408-27.52-36.408c-22.528-15.456,1.696-15.16,1.696-15.16 c24.88,1.752,37.976,25.672,37.976,25.672c22.144,38.048,58.064,27.048,72.192,20.672c2.232-16.08,8.656-27.064,15.736-33.28 c-55.056-6.296-112.944-27.64-112.944-123.04c0-27.176,9.656-49.408,25.52-66.832c-2.568-6.296-11.072-31.6,2.416-65.872 c0,0,20.832-6.688,68.2,25.52c19.784-5.52,41-8.28,62.096-8.392c21.048,0.112,42.28,2.864,62.096,8.392 c47.328-32.208,68.128-25.52,68.128-25.52c13.52,34.272,5.016,59.576,2.456,65.872c15.904,17.424,25.504,39.648,25.504,66.832 c0,95.64-57.984,116.68-113.232,122.856c8.904,7.688,16.832,22.872,16.832,46.112c0,33.296-0.296,60.128-0.296,68.296 c0,6.672,4.472,14.424,17.048,11.968C425.016,457.387,496,364.123,496,254.163C496,116.627,384.952,5.163,247.992,5.163z"/> </g><g> <path style="fill:#114C82;" d="M378.496,109.131c13.128,33.904,4.752,58.928,2.2,65.176c15.904,17.424,25.504,39.648,25.504,66.832 c0,95.64-57.984,116.68-113.232,122.856c8.904,7.688,16.832,22.872,16.832,46.112c0,33.296-0.296,60.128-0.296,68.296 c0,6.672,4.472,14.424,17.048,11.968C425.016,457.387,496,364.123,496,254.163c0-29.56-5.152-57.896-14.568-84.2 C447.24,133.963,409.184,109.987,378.496,109.131z"/> <path style="fill:#114C82;" d="M192.976,377.323c2.784-5.616,6.184-9.984,9.76-13.144c-30.176-3.456-61.168-11.512-83.048-33.744 C136.52,358.451,163.928,371.195,192.976,377.323z"/> </g><path style="fill:#6CA9EA;" d="M12.912,270.947c0-137.536,111.048-249,247.992-249c76.04,0,144.056,34.392,189.536,88.488 C405.52,46.755,331.616,5.163,247.992,5.163C111.048,5.163,0,116.627,0,254.163c0,61.32,22.12,117.424,58.752,160.792 C29.944,374.291,12.912,324.643,12.912,270.947z"/><path style="fill:#083E66;" d="M322.712,426.899c0-23.232-7.928-38.44-16.832-46.128c55.248-6.16,113.24-27.216,113.24-122.848 c0-27.184-9.6-49.4-25.52-66.824c2.576-6.296,11.096-31.608-2.456-65.872c0,0-2.576-0.792-7.896-0.488 c5.808,25.84-0.416,44.32-2.552,49.568c15.904,17.424,25.504,39.648,25.504,66.832c0,95.64-57.984,116.68-113.232,122.856 c8.904,7.688,16.832,22.872,16.832,46.112c0,33.296-0.296,60.128-0.296,68.296c0,5.872,3.496,12.568,12.92,12.408 C322.488,479.555,322.712,455.659,322.712,426.899z"/><path style="fill:#114C82;" d="M117.464,423.995c5.208,10.72,22.712,36.4,68.888,30.992c-0.064-5.648-0.112-11.976-0.144-18.928 C150.584,443.835,129.552,434.667,117.464,423.995z"/><path style="fill:#6CA9EA;" d="M126.368,391.387c-1.592-2.4-4.576-6.472-8.904-10.544 C120.272,385.011,123.256,388.507,126.368,391.387z"/></symbol><symbol id="linkedin" viewBox="0 0 473.931 473.931"><title>linkedin</title><circle style="fill:#4A86C5;" cx="236.966" cy="236.966" r="236.966"/><path style="fill:#3D80B2;" d="M404.518,69.383c92.541,92.549,92.549,242.59,0,335.138c-92.541,92.541-242.593,92.541-335.134,0 L404.518,69.383z"/><path style="fill:#4A86C5;" d="M462.646,309.275c0.868-2.713,1.658-5.456,2.432-8.206 C464.307,303.823,463.496,306.562,462.646,309.275z"/><g> <polygon style="fill:#377CA5;" points="465.097,301.017 465.097,301.017 465.082,301.07 "/> <path style="fill:#377CA5;" d="M465.097,301.017L336.721,172.641l-29.204,29.204l-20.303-20.303l-16.946,16.946L171.032,99.25 l-6.155-2.346l-38.08,38.08l45.968,45.964l-44.998,44.995l43.943,43.943l-48.048,48.052L276.475,470.59 c87.984-14.78,159.5-77.993,186.175-161.311c0.849-2.716,1.658-5.452,2.432-8.206C465.082,301.055,465.09,301.032,465.097,301.017z "/> </g><path style="fill:#FFFFFF;" d="M358.565,230.459v87.883h-50.944v-81.997c0-20.595-7.375-34.656-25.811-34.656 c-14.084,0-22.458,9.474-26.147,18.634c-1.343,3.278-1.688,7.835-1.688,12.423v85.593H203.02c0,0,0.681-138.875,0-153.259h50.952 V186.8c-0.094,0.161-0.236,0.34-0.329,0.498h0.329V186.8c6.769-10.425,18.862-25.324,45.923-25.324 C333.432,161.479,358.565,183.384,358.565,230.459z M149.7,91.198c-17.429,0-28.838,11.439-28.838,26.473 c0,14.716,11.072,26.495,28.164,26.495h0.344c17.766,0,28.823-11.779,28.823-26.495C177.857,102.636,167.137,91.198,149.7,91.198z M123.886,318.341h50.944V165.083h-50.944V318.341z"/></symbol><symbol id="visits" viewBox="0 0 511.998 511.998"><title>visits</title><g> <g> <path d="M508.18,246.001c-1.149-1.286-28.673-31.85-73.235-62.677c-59.582-41.217-121.461-63.003-178.946-63.003 s-119.364,21.786-178.946,63.003C32.49,214.151,4.967,244.715,3.818,246.001c-5.091,5.693-5.091,14.303,0,19.996 c1.149,1.286,28.673,31.85,73.235,62.677c59.582,41.217,121.461,63.003,178.946,63.003s119.364-21.786,178.946-63.003 c44.563-30.827,72.086-61.391,73.235-62.677C513.271,260.303,513.271,251.694,508.18,246.001z M94.726,304.42 c-26.936-18.565-47.504-37.332-58.8-48.415c19.373-18.975,66.061-60.527,126.015-85.503c-20.561,22.599-33.11,52.61-33.11,85.497 c0,32.847,12.519,62.824,33.034,85.414C135.804,330.575,112.871,316.927,94.726,304.42z M255.999,353.167 c-53.579,0-97.169-43.59-97.169-97.168c0-53.579,43.59-97.168,97.169-97.168s97.169,43.589,97.169,97.168 S309.578,353.167,255.999,353.167z M350.057,341.496c20.561-22.599,33.11-52.61,33.11-85.498 c0-32.847-12.519-62.824-33.034-85.414c26.061,10.838,48.994,24.486,67.139,36.993c26.934,18.563,47.5,37.329,58.8,48.415 C456.699,274.968,410.011,316.52,350.057,341.496z"/> </g> </g><g> <g> <path d="M255.999,207.656c-26.656,0-48.343,21.687-48.343,48.343s21.687,48.343,48.343,48.343c8.284,0,15-6.716,15-15 c0-4.142-1.679-7.892-4.394-10.607c-2.714-2.714-6.464-4.393-10.606-4.393c-10.114,0-18.343-8.229-18.343-18.343 c0-10.114,8.229-18.343,18.343-18.343c10.114,0,18.343,8.229,18.343,18.343c0,4.142,1.679,7.892,4.394,10.607 c2.714,2.714,6.464,4.393,10.606,4.393c8.284,0,15-6.716,15-15C304.342,229.343,282.655,207.656,255.999,207.656z"/> </g> </g></symbol><symbol id="more" viewBox="0 0 512 512"><title>more</title><g> <g> <path d="M64,192c-35.285,0-64,28.715-64,64s28.715,64,64,64s64-28.715,64-64S99.285,192,64,192z M64,298.667 c-23.531,0-42.667-19.136-42.667-42.667S40.469,213.333,64,213.333c23.531,0,42.667,19.136,42.667,42.667 S87.531,298.667,64,298.667z"/> </g> </g><g> <g> <path d="M256,192c-35.285,0-64,28.715-64,64s28.715,64,64,64s64-28.715,64-64S291.285,192,256,192z M256,298.667 c-23.531,0-42.667-19.136-42.667-42.667s19.136-42.667,42.667-42.667s42.667,19.136,42.667,42.667S279.531,298.667,256,298.667z"/> </g> </g><g> <g> <path d="M448,192c-35.285,0-64,28.715-64,64s28.715,64,64,64c35.285,0,64-28.715,64-64S483.285,192,448,192z M448,298.667 c-23.531,0-42.667-19.136-42.667-42.667s19.136-42.667,42.667-42.667c23.531,0,42.667,19.136,42.667,42.667 S471.531,298.667,448,298.667z"/> </g> </g></symbol><symbol id="more-1" viewBox="0 0 512 512"><title>more-1</title><g xmlns="http://www.w3.org/2000/svg"> <g> <path d="M64,192c-35.285,0-64,28.715-64,64s28.715,64,64,64s64-28.715,64-64S99.285,192,64,192z M64,298.667 c-23.531,0-42.667-19.136-42.667-42.667S40.469,213.333,64,213.333c23.531,0,42.667,19.136,42.667,42.667 S87.531,298.667,64,298.667z" fill="#478ac9" data-original="#000000" style="" class=""/> </g> </g><g xmlns="http://www.w3.org/2000/svg"> <g> <path d="M256,192c-35.285,0-64,28.715-64,64s28.715,64,64,64s64-28.715,64-64S291.285,192,256,192z M256,298.667 c-23.531,0-42.667-19.136-42.667-42.667s19.136-42.667,42.667-42.667s42.667,19.136,42.667,42.667S279.531,298.667,256,298.667z" fill="#478ac9" data-original="#000000" style="" class=""/> </g> </g><g xmlns="http://www.w3.org/2000/svg"> <g> <path d="M448,192c-35.285,0-64,28.715-64,64s28.715,64,64,64c35.285,0,64-28.715,64-64S483.285,192,448,192z M448,298.667 c-23.531,0-42.667-19.136-42.667-42.667s19.136-42.667,42.667-42.667c23.531,0,42.667,19.136,42.667,42.667 S471.531,298.667,448,298.667z" fill="#478ac9" data-original="#000000" style="" class=""/> </g> </g></symbol></svg>